<svg width="24" height="24" viewBox="0 0 24 24" fill="none" xmlns="http://www.w3.org/2000/svg">
<path d="M21.4761 5.7322L14.6228 0.937262C12.7548 -0.37153 9.88732 -0.300141 8.09071 1.09194L2.12976 5.74409C0.93995 6.67215 0 8.57584 0 10.075V18.2847C0 21.3187 2.46291 23.7935 5.49692 23.7935H18.3231C21.3571 23.7935 23.82 21.3306 23.82 18.2966V10.2297C23.82 8.62344 22.7849 6.64835 21.4761 5.7322ZM12.8024 19.0343C12.8024 19.5221 12.3978 19.9266 11.91 19.9266C11.4222 19.9266 11.0176 19.5221 11.0176 19.0343V15.4648C11.0176 14.977 11.4222 14.5725 11.91 14.5725C12.3978 14.5725 12.8024 14.977 12.8024 15.4648V19.0343Z" fill="#138808"/>
</svg>
