<svg width="25" height="25" viewBox="0 0 25 25" fill="none" xmlns="http://www.w3.org/2000/svg">
<path d="M12.2525 24.5927C11.5546 24.5927 10.8677 24.3601 10.3249 23.8948L8.57453 22.3992C8.39727 22.2441 7.95414 22.089 7.72149 22.089H5.78276C4.14315 22.089 2.81374 20.7596 2.81374 19.12V17.2256C2.81374 16.9929 2.65864 16.5498 2.51462 16.3836L1.00795 14.611C0.0995216 13.5364 0.0995216 11.8525 1.00795 10.7668L2.51462 8.99424C2.65864 8.82807 2.81374 8.38493 2.81374 8.15228V6.26895C2.81374 4.62934 4.14315 3.29992 5.78276 3.29992H7.69933C7.93198 3.29992 8.36404 3.13375 8.55237 2.97865L10.3027 1.48306C11.3884 0.563549 13.0834 0.563549 14.1691 1.48306L15.9195 2.97865C16.0967 3.13375 16.551 3.28885 16.7836 3.28885H18.6669C20.3066 3.28885 21.636 4.61826 21.636 6.25787V8.1412C21.636 8.37385 21.8021 8.80591 21.9572 8.99424L23.4528 10.7447C24.3834 11.8414 24.3723 13.5364 23.4528 14.611L21.9572 16.3614C21.8021 16.5498 21.647 16.9818 21.647 17.2145V19.0978C21.647 20.7374 20.3176 22.0668 18.678 22.0668H16.7947C16.562 22.0668 16.13 22.233 15.9306 22.3881L14.1802 23.8837C13.6373 24.3601 12.9394 24.5927 12.2525 24.5927ZM5.78276 4.96169C5.06266 4.96169 4.47551 5.54885 4.47551 6.26895V8.15228C4.47551 8.78375 4.18747 9.5814 3.77756 10.0689L2.2709 11.8414C1.89423 12.2957 1.89423 13.0933 2.2709 13.5364L3.76649 15.2979C4.16531 15.7521 4.46443 16.583 4.46443 17.2145V19.1089C4.46443 19.829 5.05159 20.4162 5.77168 20.4162H7.69933C8.31973 20.4162 9.13953 20.7153 9.62698 21.1252L11.3884 22.6318C11.8426 23.0196 12.6403 23.0196 13.0945 22.6318L14.8449 21.1362C15.3434 20.7153 16.1521 20.4272 16.7725 20.4272H18.6559C19.376 20.4272 19.9631 19.8401 19.9631 19.12V17.2366C19.9631 16.6162 20.2622 15.8075 20.6721 15.309L22.1788 13.5475C22.5666 13.0933 22.5666 12.2957 22.1788 11.8414L20.6832 10.091C20.2622 9.59248 19.9742 8.78375 19.9742 8.16336V6.26895C19.9742 5.54885 19.387 4.96169 18.6669 4.96169H16.7836C16.1521 4.96169 15.3323 4.66257 14.8449 4.25267L13.0834 2.746C12.6292 2.35826 11.8426 2.35826 11.3773 2.746L9.63806 4.25267C9.13953 4.66257 8.3308 4.96169 7.69933 4.96169H5.78276Z" fill="#484C52"/>
<path d="M12.2424 18.0897C11.6331 18.0897 11.1346 17.5912 11.1346 16.9818C11.1346 16.3725 11.622 15.874 12.2424 15.874C12.8518 15.874 13.3503 16.3725 13.3503 16.9818C13.3503 17.5912 12.8628 18.0897 12.2424 18.0897Z" fill="#484C52"/>
<path d="M12.2424 14.5997C11.7882 14.5997 11.4116 14.2231 11.4116 13.7689V8.40687C11.4116 7.95266 11.7882 7.57599 12.2424 7.57599C12.6967 7.57599 13.0733 7.95266 13.0733 8.40687V13.7578C13.0733 14.2231 12.7077 14.5997 12.2424 14.5997Z" fill="#484C52"/>
</svg>
