<svg width="24" height="24" viewBox="0 0 24 24" fill="none" xmlns="http://www.w3.org/2000/svg">
<path d="M23.2958 10.3911L21.6875 8.50883C21.3897 8.15144 21.1395 7.48432 21.1395 7.0078V4.9826C21.1395 3.71982 20.1031 2.68339 18.8403 2.68339H16.8151C16.3386 2.68339 15.6596 2.43322 15.3022 2.1354L13.4199 0.527148C12.598 -0.175716 11.2518 -0.175716 10.4298 0.527148L8.52372 2.1354C8.16633 2.43322 7.49921 2.68339 7.02269 2.68339H4.96175C3.69897 2.68339 2.66255 3.71982 2.66255 4.9826V7.0078C2.66255 7.4724 2.42429 8.13953 2.12646 8.49692L0.518214 10.3911C-0.172738 11.225 -0.172738 12.5592 0.518214 13.3693L2.12646 15.2635C2.42429 15.609 2.66255 16.288 2.66255 16.7526V18.7897C2.66255 20.0525 3.69897 21.0889 4.96175 21.0889H7.0346C7.49921 21.0889 8.17825 21.3391 8.53564 21.6369L10.4179 23.2452C11.2399 23.948 12.586 23.948 13.408 23.2452L15.2903 21.6369C15.6477 21.3391 16.3148 21.0889 16.7913 21.0889H18.8165C20.0793 21.0889 21.1157 20.0525 21.1157 18.7897V16.7645C21.1157 16.288 21.3659 15.6209 21.6637 15.2635L23.272 13.3812C23.9987 12.5712 23.9987 11.225 23.2958 10.3911ZM11.0135 7.2818C11.0135 6.79337 11.4186 6.38832 11.907 6.38832C12.3954 6.38832 12.8005 6.79337 12.8005 7.2818V13.0358C12.8005 13.5242 12.3954 13.9292 11.907 13.9292C11.4186 13.9292 11.0135 13.5242 11.0135 13.0358V7.2818ZM11.907 17.6937C11.2518 17.6937 10.7157 17.1576 10.7157 16.5024C10.7157 15.8472 11.2399 15.3111 11.907 15.3111C12.5622 15.3111 13.0983 15.8472 13.0983 16.5024C13.0983 17.1576 12.5741 17.6937 11.907 17.6937Z" fill="#138808"/>
</svg>
