<svg width="22" height="22" viewBox="0 0 22 22" fill="none" xmlns="http://www.w3.org/2000/svg">
<path d="M11.12 11.78C11.05 11.77 10.96 11.77 10.88 11.78C9.12 11.72 7.71997 10.28 7.71997 8.50998C7.71997 6.69998 9.18 5.22998 11 5.22998C12.81 5.22998 14.28 6.69998 14.28 8.50998C14.27 10.28 12.88 11.72 11.12 11.78Z" stroke="#292D32" stroke-linecap="round" stroke-linejoin="round"/>
<path d="M17.74 18.3802C15.96 20.0102 13.6 21.0002 11 21.0002C8.40001 21.0002 6.04001 20.0102 4.26001 18.3802C4.36001 17.4402 4.96001 16.5202 6.03001 15.8002C8.77001 13.9802 13.25 13.9802 15.97 15.8002C17.04 16.5202 17.64 17.4402 17.74 18.3802Z" stroke="#292D32" stroke-linecap="round" stroke-linejoin="round"/>
<path d="M11 21C16.5228 21 21 16.5228 21 11C21 5.47715 16.5228 1 11 1C5.47715 1 1 5.47715 1 11C1 16.5228 5.47715 21 11 21Z" stroke="#292D32" stroke-linecap="round" stroke-linejoin="round"/>
</svg>
