<svg width="24" height="23" viewBox="0 0 24 23" fill="none" xmlns="http://www.w3.org/2000/svg">
<path d="M21.5463 7.92679C19.3917 7.92679 18.5108 6.40307 19.5822 4.53413C20.2012 3.45087 19.8321 2.07 18.7489 1.45099L16.6895 0.272485C15.7491 -0.287005 14.5348 0.0463084 13.9754 0.986728L13.8444 1.21291C12.773 3.08184 11.0112 3.08184 9.92798 1.21291L9.79703 0.986728C9.66871 0.761719 9.49691 0.564478 9.29165 0.406483C9.08638 0.248488 8.85175 0.132894 8.60139 0.0664278C8.35103 -3.84835e-05 8.08996 -0.0160498 7.83336 0.0193257C7.57675 0.0547011 7.32975 0.140757 7.10672 0.272485L5.04732 1.45099C3.96405 2.07 3.59502 3.46277 4.21403 4.54604C5.2973 6.40307 4.4164 7.92679 2.26177 7.92679C1.02375 7.92679 0 8.93863 0 10.1886V12.2837C0 13.5217 1.01184 14.5454 2.26177 14.5454C4.4164 14.5454 5.2973 16.0692 4.21403 17.9381C3.59502 19.0214 3.96405 20.4022 5.04732 21.0212L7.10672 22.1997C8.04714 22.7592 9.26135 22.4259 9.82084 21.4855L9.95178 21.2593C11.0231 19.3904 12.7849 19.3904 13.8682 21.2593L13.9992 21.4855C14.5587 22.4259 15.7729 22.7592 16.7133 22.1997L18.7727 21.0212C19.856 20.4022 20.225 19.0095 19.606 17.9381C18.5227 16.0692 19.4036 14.5454 21.5582 14.5454C22.7963 14.5454 23.82 13.5336 23.82 12.2837V10.1886C23.8138 9.58858 23.5718 9.01511 23.1464 8.59195C22.7211 8.16879 22.1463 7.92988 21.5463 7.92679ZM11.904 15.1049C9.77322 15.1049 8.03523 13.3669 8.03523 11.2361C8.03523 9.10529 9.77322 7.3673 11.904 7.3673C14.0349 7.3673 15.7729 9.10529 15.7729 11.2361C15.7729 13.3669 14.0349 15.1049 11.904 15.1049Z" fill="#138808"/>
</svg>
