<svg width="25" height="25" viewBox="0 0 25 25" fill="none" xmlns="http://www.w3.org/2000/svg">
<path d="M21.0053 14.9437L20.7058 14.9891L20.6073 15.2755C20.4416 15.7576 20.2663 16.1931 20.0375 16.6078L19.8877 16.8794L20.0645 17.1343C20.605 17.9133 21.1757 18.6103 21.7484 19.3069L21.7484 19.307L21.755 19.3148C21.7691 19.3312 21.779 19.3481 21.7848 19.362C21.7886 19.3713 21.7895 19.3767 21.7897 19.3781C21.7898 19.3787 21.7897 19.3784 21.7897 19.3771C21.7897 19.3797 21.7897 19.3817 21.7896 19.3831C21.7873 19.387 21.7818 19.3952 21.7705 19.4084L21.7599 19.4207L21.7502 19.4337C21.5855 19.6533 20.9889 20.3275 20.3593 20.9532C20.0467 21.2639 19.7383 21.5502 19.4822 21.7556C19.3533 21.8589 19.2483 21.9331 19.1698 21.9789C19.1528 21.9888 19.139 21.9963 19.1281 22.0018C19.1268 22.0013 19.1253 22.0008 19.1238 22.0002C19.1011 21.9918 19.0728 21.9782 19.0391 21.9583L16.922 20.3015L16.6693 20.1037L16.3842 20.2511C15.9582 20.4715 15.5029 20.6623 15.0492 20.8087L14.7426 20.9076L14.7059 21.2275C14.6926 21.3434 14.6796 21.4593 14.6667 21.5749C14.5717 22.4224 14.4777 23.2607 14.2698 24.0402L14.2698 24.0401L14.2679 24.0477C14.2631 24.0669 14.2532 24.0804 14.2429 24.0887C14.234 24.0958 14.2199 24.1032 14.1947 24.1032H10.7519C10.7321 24.1032 10.7122 24.0956 10.6984 24.0841C10.6935 24.0801 10.691 24.077 10.6897 24.0753L10.6892 24.0711L10.688 24.0627L10.2537 21.2093L10.2072 20.9036L9.91293 20.8087C9.45376 20.6606 9.01468 20.4845 8.59343 20.2666L8.31299 20.1216L8.06147 20.3124L5.87487 21.9718L5.86302 21.9808L5.85173 21.9904C5.84194 21.9988 5.8214 22.0092 5.79133 22.0096C5.79037 22.0094 5.78851 22.0088 5.78577 22.0076C5.7788 22.0045 5.76771 21.9979 5.75528 21.9855L5.74654 21.9768L5.73737 21.9685C5.69143 21.9269 5.64489 21.8848 5.59786 21.8422C4.78688 21.1087 3.82918 20.2425 3.24931 19.4424C3.24539 19.4368 3.24227 19.4305 3.23976 19.4218C3.23696 19.4122 3.23439 19.3976 3.23439 19.3771C3.23439 19.3702 3.23493 19.3665 3.23522 19.3648C3.2355 19.3632 3.23591 19.3616 3.23678 19.3592C3.2385 19.3545 3.24427 19.3409 3.26333 19.3138C3.50075 18.9927 3.74808 18.6776 4.00139 18.3549C4.02288 18.3275 4.04442 18.3 4.066 18.2725C4.34109 17.9219 4.62187 17.5621 4.89188 17.1889L5.07451 16.9364L4.92833 16.6612C4.67805 16.1901 4.47481 15.7097 4.33063 15.2195L4.24038 14.9126L3.92393 14.8659L1.09857 14.449C1.0979 14.4488 1.09695 14.4483 1.09568 14.4475C1.0926 14.4456 1.08752 14.4416 1.08193 14.4345C1.0695 14.4188 1.06329 14.3991 1.06329 14.3836V10.9435C1.06355 10.942 1.06448 10.937 1.06739 10.9287C1.07233 10.9147 1.08043 10.8989 1.09076 10.8846C1.09523 10.8784 1.09933 10.8736 1.10273 10.87L3.94089 10.4427L4.25035 10.3962L4.3437 10.0975C4.48822 9.63499 4.67688 9.19857 4.91244 8.7569L5.05771 8.48451L4.87927 8.23259C4.34147 7.47334 3.77411 6.76448 3.19814 6.06397L3.19822 6.0639L3.19155 6.05613C3.17347 6.03503 3.16417 6.01986 3.15969 6.01109C3.16562 5.99945 3.17745 5.97955 3.20203 5.94503C3.36566 5.72077 3.95759 5.05133 4.58669 4.42797C4.89914 4.11839 5.2074 3.83358 5.46339 3.62946C5.59219 3.52676 5.69714 3.45306 5.77562 3.40753C5.7918 3.39814 5.80513 3.39098 5.81578 3.38556C5.83478 3.3937 5.86003 3.40768 5.88994 3.42983L8.02633 5.08631L8.27873 5.28201L8.56242 5.13528C8.98842 4.91494 9.44371 4.72409 9.89742 4.57773L10.2039 4.47885L10.2407 4.15888C10.254 4.04299 10.2669 3.92714 10.2799 3.81147C10.3749 2.96397 10.4689 2.12572 10.6768 1.34625L10.6768 1.34627L10.6787 1.33869C10.6835 1.31948 10.6934 1.30597 10.7037 1.2977C10.7126 1.29061 10.7267 1.2832 10.7519 1.2832H14.1947C14.2145 1.2832 14.2344 1.29085 14.2482 1.30228C14.2531 1.30629 14.2556 1.30936 14.2569 1.31114L14.2574 1.31528L14.2586 1.32366L14.6929 4.1771L14.7394 4.4828L15.0337 4.57773C15.4928 4.72585 15.9319 4.90189 16.3532 5.11977L16.6325 5.26429L16.8838 5.07499L19.0859 3.41565L19.1138 3.39461L19.128 3.38043C19.1303 3.37976 19.1334 3.37903 19.1371 3.37839C19.1428 3.37743 19.1492 3.37682 19.1561 3.37676C19.1573 3.37693 19.1627 3.37781 19.1723 3.38174C19.1847 3.38688 19.1996 3.39543 19.2144 3.40728C19.2972 3.48382 19.3819 3.56169 19.4678 3.6407C20.2543 4.36435 21.1453 5.18402 21.6963 5.95813L21.7074 5.97364L21.7094 5.97606C21.7098 5.97808 21.7102 5.98059 21.7106 5.98363C21.7115 5.99041 21.7122 5.99902 21.7122 6.00934C21.7122 6.01616 21.7117 6.01993 21.7114 6.02157C21.7111 6.02317 21.7107 6.0248 21.7098 6.02718C21.7081 6.03188 21.7023 6.04556 21.6832 6.07261C21.4458 6.39368 21.1985 6.70882 20.9452 7.03158C20.9237 7.05895 20.9022 7.08638 20.8806 7.11386C20.6055 7.46451 20.3247 7.82428 20.0547 8.19753L19.8721 8.44999L20.0183 8.72516C20.2687 9.19662 20.4726 9.67844 20.6171 10.1554L20.7085 10.4569L21.02 10.5046L23.8478 10.9373C23.8484 10.9375 23.8495 10.938 23.8509 10.9389C23.854 10.9408 23.8591 10.9448 23.8647 10.9519C23.8771 10.9676 23.8833 10.9873 23.8833 11.0029V14.4427C23.883 14.4443 23.8821 14.4488 23.8796 14.456C23.8749 14.4689 23.8673 14.4836 23.8575 14.4969C23.8514 14.505 23.846 14.5107 23.8421 14.5144L21.0053 14.9437ZM10.6887 24.0735C10.6887 24.0735 10.6889 24.0738 10.6891 24.0743L10.6887 24.0735ZM14.2579 1.3129C14.2578 1.3129 14.2577 1.31265 14.2575 1.31213L14.2579 1.3129ZM16.9433 12.6932C16.9433 10.2305 14.936 8.2232 12.4733 8.2232C10.0105 8.2232 8.00329 10.2305 8.00329 12.6932C8.00329 15.1559 10.0105 17.1632 12.4733 17.1632C14.936 17.1632 16.9433 15.1559 16.9433 12.6932Z" stroke="#484C52"/>
</svg>
