<svg width="37" height="37" viewBox="0 0 37 37" fill="none" xmlns="http://www.w3.org/2000/svg">
<path d="M30.8333 33.9168H6.16667C5.75779 33.9168 5.36566 33.7544 5.07654 33.4653C4.78743 33.1762 4.625 32.784 4.625 32.3752V4.62516C4.625 4.21629 4.78743 3.82416 5.07654 3.53504C5.36566 3.24592 5.75779 3.0835 6.16667 3.0835H30.8333C31.2422 3.0835 31.6343 3.24592 31.9235 3.53504C32.2126 3.82416 32.375 4.21629 32.375 4.62516V32.3752C32.375 32.784 32.2126 33.1762 31.9235 33.4653C31.6343 33.7544 31.2422 33.9168 30.8333 33.9168ZM10.7917 9.25016V15.4168H16.9583V9.25016H10.7917ZM10.7917 18.5002V21.5835H26.2083V18.5002H10.7917ZM10.7917 24.6668V27.7502H26.2083V24.6668H10.7917ZM20.0417 10.7918V13.8752H26.2083V10.7918H20.0417Z" fill="#575757"/>
</svg>
