<svg width="26" height="26" viewBox="0 0 26 26" fill="none" xmlns="http://www.w3.org/2000/svg">
<path d="M22.4089 14.4796H3.5911C1.8046 14.4796 1.09 15.2418 1.09 17.1355V21.9471C1.09 23.8408 1.8046 24.6031 3.5911 24.6031H22.4089C24.1954 24.6031 24.91 23.8408 24.91 21.9471V17.1355C24.91 15.2418 24.1954 14.4796 22.4089 14.4796ZM22.4089 0.783051H3.5911C1.8046 0.783051 1.09 1.54529 1.09 3.43898V8.25062C1.09 10.1443 1.8046 10.9066 3.5911 10.9066H22.4089C24.1954 10.9066 24.91 10.1443 24.91 8.25062V3.43898C24.91 1.54529 24.1954 0.783051 22.4089 0.783051Z" stroke="#484C52" stroke-linecap="round" stroke-linejoin="round"/>
</svg>
