<svg width="24" height="24" viewBox="0 0 24 24" fill="none" xmlns="http://www.w3.org/2000/svg">
<path d="M21.3189 13.6965H2.5011C0.7146 13.6965 0 14.4587 0 16.3524V21.1641C0 23.0578 0.7146 23.82 2.5011 23.82H21.3189C23.1054 23.82 23.82 23.0578 23.82 21.1641V16.3524C23.82 14.4587 23.1054 13.6965 21.3189 13.6965ZM21.3189 0H2.5011C0.7146 0 0 0.76224 0 2.65593V7.46757C0 9.36126 0.7146 10.1235 2.5011 10.1235H21.3189C23.1054 10.1235 23.82 9.36126 23.82 7.46757V2.65593C23.82 0.76224 23.1054 0 21.3189 0Z" fill="#138808"/>
</svg>
